solid OpenSCAD_Model
  facet normal -0.500001 -0.866025 0
    outer loop
      vertex -11.5789 -6.30529 0
      vertex 0.328924 -13.1803 7.5
      vertex -11.5789 -6.30529 7.5
    endloop
  endfacet
  facet normal -0.500001 -0.866025 -0
    outer loop
      vertex 0.328924 -13.1803 7.5
      vertex -11.5789 -6.30529 0
      vertex 0.328924 -13.1803 0
    endloop
  endfacet
  facet normal 0.500001 -0.866025 0
    outer loop
      vertex 0.328924 -13.1803 0
      vertex 11.25 -6.875 7.5
      vertex 0.328924 -13.1803 7.5
    endloop
  endfacet
  facet normal 0.500001 -0.866025 0
    outer loop
      vertex 11.25 -6.875 7.5
      vertex 0.328924 -13.1803 0
      vertex 11.25 -6.875 0
    endloop
  endfacet
  facet normal 1 -0 0
    outer loop
      vertex 11.25 -6.875 7.5
      vertex 11.25 6.875 0
      vertex 11.25 6.875 7.5
    endloop
  endfacet
  facet normal 1 0 0
    outer loop
      vertex 11.25 6.875 0
      vertex 11.25 -6.875 7.5
      vertex 11.25 -6.875 0
    endloop
  endfacet
  facet normal 0 0 1
    outer loop
      vertex 11.25 6.875 7.5
      vertex 10.25 6.375 7.5
      vertex 11.25 -6.875 7.5
    endloop
  endfacet
  facet normal 0 0 1
    outer loop
      vertex 11.25 6.875 7.5
      vertex 0.395911 12.0643 7.5
      vertex 10.25 6.375 7.5
    endloop
  endfacet
  facet normal 0 0 1
    outer loop
      vertex 0.328924 13.1803 7.5
      vertex 0.395911 12.0643 7.5
      vertex 11.25 6.875 7.5
    endloop
  endfacet
  facet normal 0 0 1
    outer loop
      vertex 0.328924 13.1803 7.5
      vertex -10.6459 5.68926 7.5
      vertex 0.395911 12.0643 7.5
    endloop
  endfacet
  facet normal 0 0 1
    outer loop
      vertex -10.6459 5.68926 7.5
      vertex -11.5789 6.30529 7.5
      vertex -10.6459 -5.68926 7.5
    endloop
  endfacet
  facet normal -0 0 1
    outer loop
      vertex -11.5789 6.30529 7.5
      vertex -10.6459 5.68926 7.5
      vertex 0.328924 13.1803 7.5
    endloop
  endfacet
  facet normal -0 0 1
    outer loop
      vertex 10.25 -6.375 7.5
      vertex 11.25 -6.875 7.5
      vertex 10.25 6.375 7.5
    endloop
  endfacet
  facet normal 0 0 1
    outer loop
      vertex 0.395911 -12.0643 7.5
      vertex 11.25 -6.875 7.5
      vertex 10.25 -6.375 7.5
    endloop
  endfacet
  facet normal -0 0 1
    outer loop
      vertex 0.395911 -12.0643 7.5
      vertex 0.328924 -13.1803 7.5
      vertex 11.25 -6.875 7.5
    endloop
  endfacet
  facet normal 0 0 1
    outer loop
      vertex -10.6459 -5.68926 7.5
      vertex 0.328924 -13.1803 7.5
      vertex 0.395911 -12.0643 7.5
    endloop
  endfacet
  facet normal 0 0 1
    outer loop
      vertex -10.6459 -5.68926 7.5
      vertex -11.5789 -6.30529 7.5
      vertex 0.328924 -13.1803 7.5
    endloop
  endfacet
  facet normal 0 0 1
    outer loop
      vertex -11.5789 -6.30529 7.5
      vertex -10.6459 -5.68926 7.5
      vertex -11.5789 6.30529 7.5
    endloop
  endfacet
  facet normal -1 0 0
    outer loop
      vertex -11.5789 -6.30529 0
      vertex -11.5789 6.30529 7.5
      vertex -11.5789 6.30529 0
    endloop
  endfacet
  facet normal -1 -0 0
    outer loop
      vertex -11.5789 6.30529 7.5
      vertex -11.5789 -6.30529 0
      vertex -11.5789 -6.30529 7.5
    endloop
  endfacet
  facet normal 0 0 -1
    outer loop
      vertex 11.25 -6.875 0
      vertex 8.25 -5.375 0
      vertex 11.25 6.875 0
    endloop
  endfacet
  facet normal -0 0 -1
    outer loop
      vertex 11.25 -6.875 0
      vertex 0.529886 -9.83221 0
      vertex 8.25 -5.375 0
    endloop
  endfacet
  facet normal 0 0 -1
    outer loop
      vertex 0.328924 -13.1803 0
      vertex 0.529886 -9.83221 0
      vertex 11.25 -6.875 0
    endloop
  endfacet
  facet normal 0 0 -1
    outer loop
      vertex 0.328924 -13.1803 0
      vertex -8.77989 -4.45721 0
      vertex 0.529886 -9.83221 0
    endloop
  endfacet
  facet normal -0 0 -1
    outer loop
      vertex -8.77989 -4.45721 0
      vertex -11.5789 -6.30529 0
      vertex -8.77989 4.45721 0
    endloop
  endfacet
  facet normal 0 0 -1
    outer loop
      vertex -11.5789 -6.30529 0
      vertex -8.77989 -4.45721 0
      vertex 0.328924 -13.1803 0
    endloop
  endfacet
  facet normal 0 0 -1
    outer loop
      vertex 8.25 5.375 0
      vertex 11.25 6.875 0
      vertex 8.25 -5.375 0
    endloop
  endfacet
  facet normal 0 0 -1
    outer loop
      vertex 0.529886 9.83221 0
      vertex 11.25 6.875 0
      vertex 8.25 5.375 0
    endloop
  endfacet
  facet normal 0 0 -1
    outer loop
      vertex 0.529886 9.83221 0
      vertex 0.328924 13.1803 0
      vertex 11.25 6.875 0
    endloop
  endfacet
  facet normal 0 0 -1
    outer loop
      vertex -8.77989 4.45721 0
      vertex 0.328924 13.1803 0
      vertex 0.529886 9.83221 0
    endloop
  endfacet
  facet normal 0 0 -1
    outer loop
      vertex -8.77989 4.45721 0
      vertex -11.5789 6.30529 0
      vertex 0.328924 13.1803 0
    endloop
  endfacet
  facet normal 0 0 -1
    outer loop
      vertex -11.5789 6.30529 0
      vertex -8.77989 4.45721 0
      vertex -11.5789 -6.30529 0
    endloop
  endfacet
  facet normal -0.500001 0.866025 0
    outer loop
      vertex 0.328924 13.1803 0
      vertex -11.5789 6.30529 7.5
      vertex 0.328924 13.1803 7.5
    endloop
  endfacet
  facet normal -0.500001 0.866025 0
    outer loop
      vertex -11.5789 6.30529 7.5
      vertex 0.328924 13.1803 0
      vertex -11.5789 6.30529 0
    endloop
  endfacet
  facet normal 0.500001 0.866025 -0
    outer loop
      vertex 11.25 6.875 0
      vertex 0.328924 13.1803 7.5
      vertex 11.25 6.875 7.5
    endloop
  endfacet
  facet normal 0.500001 0.866025 0
    outer loop
      vertex 0.328924 13.1803 7.5
      vertex 11.25 6.875 0
      vertex 0.328924 13.1803 0
    endloop
  endfacet
  facet normal 0.500003 0.866024 -0
    outer loop
      vertex 0.395911 -12.0643 1
      vertex -10.6459 -5.68926 7.5
      vertex 0.395911 -12.0643 7.5
    endloop
  endfacet
  facet normal 0.500003 0.866024 0
    outer loop
      vertex -10.6459 -5.68926 7.5
      vertex 0.395911 -12.0643 1
      vertex -10.6459 -5.68926 1
    endloop
  endfacet
  facet normal -0.500003 0.866024 0
    outer loop
      vertex 10.25 -6.375 1
      vertex 0.395911 -12.0643 7.5
      vertex 10.25 -6.375 7.5
    endloop
  endfacet
  facet normal -0.500003 0.866024 0
    outer loop
      vertex 0.395911 -12.0643 7.5
      vertex 10.25 -6.375 1
      vertex 0.395911 -12.0643 1
    endloop
  endfacet
  facet normal -1 0 0
    outer loop
      vertex 10.25 -6.375 1
      vertex 10.25 6.375 7.5
      vertex 10.25 6.375 1
    endloop
  endfacet
  facet normal -1 -0 0
    outer loop
      vertex 10.25 6.375 7.5
      vertex 10.25 -6.375 1
      vertex 10.25 -6.375 7.5
    endloop
  endfacet
  facet normal 1 -0 0
    outer loop
      vertex -10.6459 -5.68926 7.5
      vertex -10.6459 5.68926 1
      vertex -10.6459 5.68926 7.5
    endloop
  endfacet
  facet normal 1 0 0
    outer loop
      vertex -10.6459 5.68926 1
      vertex -10.6459 -5.68926 7.5
      vertex -10.6459 -5.68926 1
    endloop
  endfacet
  facet normal 0 0 1
    outer loop
      vertex 10.25 6.375 1
      vertex 8.25 5.375 1
      vertex 10.25 -6.375 1
    endloop
  endfacet
  facet normal 0 0 1
    outer loop
      vertex 10.25 6.375 1
      vertex 0.529886 9.83221 1
      vertex 8.25 5.375 1
    endloop
  endfacet
  facet normal 0 0 1
    outer loop
      vertex 0.395911 12.0643 1
      vertex 0.529886 9.83221 1
      vertex 10.25 6.375 1
    endloop
  endfacet
  facet normal 0 0 1
    outer loop
      vertex 0.395911 12.0643 1
      vertex -8.77989 4.45721 1
      vertex 0.529886 9.83221 1
    endloop
  endfacet
  facet normal 0 0 1
    outer loop
      vertex -8.77989 4.45721 1
      vertex -10.6459 5.68926 1
      vertex -8.77989 -4.45721 1
    endloop
  endfacet
  facet normal -0 0 1
    outer loop
      vertex -10.6459 5.68926 1
      vertex -8.77989 4.45721 1
      vertex 0.395911 12.0643 1
    endloop
  endfacet
  facet normal -0 0 1
    outer loop
      vertex 8.25 -5.375 1
      vertex 10.25 -6.375 1
      vertex 8.25 5.375 1
    endloop
  endfacet
  facet normal 0 0 1
    outer loop
      vertex 0.529886 -9.83221 1
      vertex 10.25 -6.375 1
      vertex 8.25 -5.375 1
    endloop
  endfacet
  facet normal -0 0 1
    outer loop
      vertex 0.529886 -9.83221 1
      vertex 0.395911 -12.0643 1
      vertex 10.25 -6.375 1
    endloop
  endfacet
  facet normal 0 0 1
    outer loop
      vertex -8.77989 -4.45721 1
      vertex 0.395911 -12.0643 1
      vertex 0.529886 -9.83221 1
    endloop
  endfacet
  facet normal 0 0 1
    outer loop
      vertex -8.77989 -4.45721 1
      vertex -10.6459 -5.68926 1
      vertex 0.395911 -12.0643 1
    endloop
  endfacet
  facet normal 0 0 1
    outer loop
      vertex -10.6459 -5.68926 1
      vertex -8.77989 -4.45721 1
      vertex -10.6459 5.68926 1
    endloop
  endfacet
  facet normal 0.500003 -0.866024 0
    outer loop
      vertex -10.6459 5.68926 1
      vertex 0.395911 12.0643 7.5
      vertex -10.6459 5.68926 7.5
    endloop
  endfacet
  facet normal 0.500003 -0.866024 0
    outer loop
      vertex 0.395911 12.0643 7.5
      vertex -10.6459 5.68926 1
      vertex 0.395911 12.0643 1
    endloop
  endfacet
  facet normal -0.500003 -0.866024 0
    outer loop
      vertex 0.395911 12.0643 1
      vertex 10.25 6.375 7.5
      vertex 0.395911 12.0643 7.5
    endloop
  endfacet
  facet normal -0.500003 -0.866024 -0
    outer loop
      vertex 10.25 6.375 7.5
      vertex 0.395911 12.0643 1
      vertex 10.25 6.375 1
    endloop
  endfacet
  facet normal 0.5 0.866025 -0
    outer loop
      vertex 0.529886 -9.83221 0
      vertex -8.77989 -4.45721 1
      vertex 0.529886 -9.83221 1
    endloop
  endfacet
  facet normal 0.5 0.866025 0
    outer loop
      vertex -8.77989 -4.45721 1
      vertex 0.529886 -9.83221 0
      vertex -8.77989 -4.45721 0
    endloop
  endfacet
  facet normal -0.5 0.866025 0
    outer loop
      vertex 8.25 -5.375 0
      vertex 0.529886 -9.83221 1
      vertex 8.25 -5.375 1
    endloop
  endfacet
  facet normal -0.5 0.866025 0
    outer loop
      vertex 0.529886 -9.83221 1
      vertex 8.25 -5.375 0
      vertex 0.529886 -9.83221 0
    endloop
  endfacet
  facet normal -1 0 0
    outer loop
      vertex 8.25 -5.375 0
      vertex 8.25 5.375 1
      vertex 8.25 5.375 0
    endloop
  endfacet
  facet normal -1 -0 0
    outer loop
      vertex 8.25 5.375 1
      vertex 8.25 -5.375 0
      vertex 8.25 -5.375 1
    endloop
  endfacet
  facet normal 1 -0 0
    outer loop
      vertex -8.77989 -4.45721 1
      vertex -8.77989 4.45721 0
      vertex -8.77989 4.45721 1
    endloop
  endfacet
  facet normal 1 0 0
    outer loop
      vertex -8.77989 4.45721 0
      vertex -8.77989 -4.45721 1
      vertex -8.77989 -4.45721 0
    endloop
  endfacet
  facet normal 0.5 -0.866025 0
    outer loop
      vertex -8.77989 4.45721 0
      vertex 0.529886 9.83221 1
      vertex -8.77989 4.45721 1
    endloop
  endfacet
  facet normal 0.5 -0.866025 0
    outer loop
      vertex 0.529886 9.83221 1
      vertex -8.77989 4.45721 0
      vertex 0.529886 9.83221 0
    endloop
  endfacet
  facet normal -0.5 -0.866025 0
    outer loop
      vertex 0.529886 9.83221 0
      vertex 8.25 5.375 1
      vertex 0.529886 9.83221 1
    endloop
  endfacet
  facet normal -0.5 -0.866025 -0
    outer loop
      vertex 8.25 5.375 1
      vertex 0.529886 9.83221 0
      vertex 8.25 5.375 0
    endloop
  endfacet
endsolid OpenSCAD_Model
