<?xml version="1.0" encoding="UTF-8" standalone="no"?>
<!-- Created with Inkscape (http://www.inkscape.org/) -->

<svg
   xmlns:dc="http://purl.org/dc/elements/1.1/"
   xmlns:cc="http://creativecommons.org/ns#"
   xmlns:rdf="http://www.w3.org/1999/02/22-rdf-syntax-ns#"
   xmlns:svg="http://www.w3.org/2000/svg"
   xmlns="http://www.w3.org/2000/svg"
   xmlns:sodipodi="http://sodipodi.sourceforge.net/DTD/sodipodi-0.dtd"
   xmlns:inkscape="http://www.inkscape.org/namespaces/inkscape"
   width="210mm"
   height="297mm"
   viewBox="0 0 210 297"
   version="1.1"
   id="svg8"
   inkscape:version="0.92.3 (2405546, 2018-03-11)"
   sodipodi:docname="icon.svg">
  <defs
     id="defs2" />
  <sodipodi:namedview
     id="base"
     pagecolor="#ffffff"
     bordercolor="#666666"
     borderopacity="1.0"
     inkscape:pageopacity="0.0"
     inkscape:pageshadow="2"
     inkscape:zoom="0.7"
     inkscape:cx="647.69312"
     inkscape:cy="594.84317"
     inkscape:document-units="mm"
     inkscape:current-layer="layer1"
     showgrid="true"
     inkscape:measure-start="46.467,563.665"
     inkscape:measure-end="733.371,456.589"
     objecttolerance="10000"
     inkscape:window-width="1920"
     inkscape:window-height="1017"
     inkscape:window-x="-8"
     inkscape:window-y="-8"
     inkscape:window-maximized="1">
    <inkscape:grid
       type="xygrid"
       id="grid4553"
       empspacing="12"
       enabled="false" />
  </sodipodi:namedview>
  <metadata
     id="metadata5">
    <rdf:RDF>
      <cc:Work
         rdf:about="">
        <dc:format>image/svg+xml</dc:format>
        <dc:type
           rdf:resource="http://purl.org/dc/dcmitype/StillImage" />
        <dc:title></dc:title>
      </cc:Work>
    </rdf:RDF>
  </metadata>
  <g
     inkscape:label="background"
     inkscape:groupmode="layer"
     id="layer1"
     style="display:inline">
    <path
       style="fill:#445500;stroke-width:0.26458332"
       d="M 173.84128,108.62032 42.061471,197.29324 a 79.646316,79.646316 0 0 0 107.402289,17.28615 79.646316,79.646316 0 0 0 24.37752,-105.95907 z"
       id="path3738"
       inkscape:connector-curvature="0" />
    <path
       style="fill:#333333;stroke-width:0.28518358"
       d="M 166.97255,98.271759 35.192736,186.94468 a 92.531546,79.646316 56.063903 0 0 3.244869,5.3018 92.531546,79.646316 56.063903 0 0 3.623867,5.04676 L 173.84129,108.62032 a 92.531546,79.646316 56.063903 0 0 -3.24487,-5.30179 92.531546,79.646316 56.063903 0 0 -3.62387,-5.046771 z"
       id="path3736"
       inkscape:connector-curvature="0" />
    <path
       style="fill:#445500;stroke-width:0.26458332"
       d="M 60.535817,82.42057 A 79.646316,79.646316 0 0 0 36.158298,188.37963 L 167.93811,99.706715 A 79.646316,79.646316 0 0 0 60.535817,82.42057 Z"
       id="path12"
       inkscape:connector-curvature="0" />
    <path
       style="fill:#ffffff;stroke:#ffffff;stroke-width:0.217448px;stroke-linecap:butt;stroke-linejoin:miter;stroke-opacity:1"
       d="m 123.6346,93.233071 31.30034,14.017999 -79.809171,53.70255 c 0,0 0.300476,-21.89615 48.508831,-67.720549 z"
       id="path4551"
       inkscape:connector-curvature="0" />
    <path
       style="display:inline;fill:#5f8dd3;stroke:#5f8dd3;stroke-width:0.21750413px;stroke-linecap:butt;stroke-linejoin:miter;stroke-opacity:1"
       d="M 163.15853,152.11163 161.95464,117.824 82.145477,171.52655 c 0,0 20.401773,7.97707 81.013053,-19.41492 z"
       id="path4551-7"
       inkscape:connector-curvature="0" />
  </g>
  <g
     inkscape:groupmode="layer"
     id="layer2"
     inkscape:label="shaft"
     style="display:inline" />
</svg>
